<?xml version="1.0" encoding="UTF-8" ?>
<!DOCTYPE svg PUBLIC "-//W3C//DTD SVG 1.1//EN" "http://www.w3.org/Graphics/SVG/1.1/DTD/svg11.dtd">
<svg width="1630pt" height="327pt" viewBox="0 0 1630 327" version="1.1" xmlns="http://www.w3.org/2000/svg">
<g id="#4285f4ff">
<path fill="#4285f4" opacity="1.00" d=" M 0.00 28.50 C 28.72 28.50 57.43 28.49 86.15 28.50 C 96.81 47.46 107.53 66.38 118.23 85.31 C 154.73 85.41 191.22 85.33 227.72 85.35 C 241.46 109.26 255.12 133.21 268.89 157.11 C 270.26 159.12 269.97 161.61 270.10 163.92 C 234.20 163.94 198.31 163.87 162.42 163.95 C 137.07 208.84 111.52 253.62 86.15 298.50 C 57.43 298.51 28.72 298.50 0.00 298.50 L 0.00 293.00 C 24.75 249.93 49.64 206.95 74.42 163.90 C 49.68 120.56 24.71 77.35 0.00 34.00 L 0.00 28.50 Z" />
</g>
<g id="#000000ff">
<path fill="#000000" opacity="1.00" d=" M 423.63 65.13 C 437.21 65.12 450.79 65.13 464.37 65.13 C 464.38 130.58 464.38 196.04 464.37 261.50 C 450.95 261.50 437.54 261.51 424.12 261.49 C 424.10 253.53 424.18 245.56 424.08 237.60 C 421.80 237.98 421.22 240.39 420.11 242.05 C 414.21 252.45 403.95 260.41 392.16 262.79 C 378.51 265.45 363.79 263.43 351.79 256.25 C 340.45 249.63 332.30 238.58 327.36 226.59 C 321.70 212.51 320.41 197.09 320.95 182.05 C 321.51 165.58 325.43 148.72 335.30 135.24 C 344.43 122.22 359.54 113.78 375.36 112.52 C 384.87 111.81 394.93 112.77 403.30 117.69 C 411.19 121.94 417.15 129.07 421.31 136.89 C 421.86 137.53 422.40 139.77 423.54 138.80 C 423.75 114.25 423.56 89.68 423.63 65.13 M 386.41 145.58 C 378.17 147.33 371.58 153.61 367.98 161.03 C 362.85 171.49 361.99 183.50 362.83 194.95 C 363.72 205.56 366.85 216.68 374.70 224.29 C 381.76 231.34 392.85 232.82 402.17 230.20 C 410.23 227.86 416.25 221.11 419.58 213.63 C 424.79 201.86 425.34 188.51 423.62 175.91 C 422.18 166.59 418.62 157.00 411.19 150.80 C 404.46 145.04 394.86 143.73 386.41 145.58 Z" />
<path fill="#000000" opacity="1.00" d=" M 979.57 78.94 C 987.10 78.94 994.64 78.93 1002.18 78.94 C 1002.19 90.71 1002.18 102.48 1002.19 114.25 C 1012.67 114.26 1023.15 114.24 1033.63 114.25 C 1033.61 120.63 1033.64 127.01 1033.60 133.38 C 1023.13 133.37 1012.66 133.38 1002.20 133.38 C 1002.17 159.90 1002.20 186.43 1002.19 212.95 C 1002.26 219.52 1001.65 226.45 1004.42 232.61 C 1006.59 237.59 1011.71 240.67 1017.01 241.20 C 1021.91 242.19 1026.89 241.04 1031.73 240.74 C 1033.41 247.40 1034.78 254.14 1036.32 260.84 C 1025.96 264.09 1014.53 264.52 1004.25 260.75 C 995.78 257.86 988.33 251.94 983.87 244.15 C 980.62 238.34 979.52 231.59 979.55 225.00 C 979.57 194.46 979.55 163.92 979.56 133.38 C 972.15 133.38 964.75 133.36 957.34 133.39 C 957.28 127.01 957.32 120.63 957.31 114.25 C 964.71 114.25 972.12 114.24 979.53 114.26 C 979.61 102.49 979.53 90.71 979.57 78.94 Z" />
<path fill="#000000" opacity="1.00" d=" M 544.93 114.28 C 563.46 110.28 583.71 112.11 600.36 121.55 C 612.61 128.49 621.97 139.98 626.93 153.10 C 632.70 167.43 633.02 183.14 632.60 198.37 C 599.16 198.26 565.73 198.32 532.29 198.33 C 532.44 206.33 533.98 214.64 538.79 221.23 C 543.99 228.73 552.89 233.12 561.90 233.73 C 570.66 234.42 580.23 232.93 587.04 226.97 C 590.26 224.29 592.43 220.62 594.12 216.83 C 606.70 217.68 619.30 218.43 631.87 219.37 C 628.94 233.24 620.24 245.69 608.20 253.18 C 591.68 263.73 571.14 265.84 552.04 263.55 C 535.58 261.59 519.54 253.93 508.89 241.02 C 497.38 227.49 492.46 209.50 492.05 192.00 C 491.51 175.52 494.57 158.53 503.25 144.31 C 512.20 129.10 527.68 118.00 544.93 114.28 M 542.19 151.19 C 536.17 156.79 532.82 164.83 532.32 172.98 C 552.98 173.01 573.63 173.00 594.28 172.99 C 594.22 165.01 591.53 156.86 585.72 151.22 C 574.24 139.82 553.77 140.05 542.19 151.19 Z" />
<path fill="#000000" opacity="1.00" d=" M 831.98 121.97 C 846.97 113.24 864.93 111.52 881.95 112.60 C 896.61 113.57 911.82 117.97 922.53 128.51 C 930.25 135.73 934.74 145.84 936.16 156.21 C 923.72 156.99 911.29 157.76 898.85 158.50 C 896.86 149.60 888.82 143.10 879.99 141.74 C 871.54 140.46 862.00 141.56 855.32 147.33 C 850.83 151.10 850.24 158.50 854.02 162.97 C 857.23 166.89 862.27 168.54 866.99 169.83 C 875.63 171.86 884.38 173.37 893.07 175.20 C 906.43 177.79 920.55 181.62 930.38 191.61 C 943.28 205.18 941.91 228.24 930.23 242.15 C 918.34 256.71 899.18 263.14 880.92 264.17 C 862.63 265.08 843.05 262.99 827.56 252.40 C 816.28 244.84 808.69 232.29 807.03 218.83 C 820.39 218.14 833.74 217.41 847.10 216.74 C 848.50 223.02 852.40 228.85 858.32 231.66 C 866.52 235.64 876.24 235.75 884.96 233.56 C 889.31 232.29 893.64 229.98 896.17 226.09 C 898.78 222.08 898.49 216.35 895.25 212.77 C 891.58 208.67 886.10 206.96 880.93 205.72 C 870.61 203.54 860.22 201.69 849.92 199.44 C 838.51 196.74 826.84 192.05 819.19 182.78 C 810.94 172.87 809.32 158.81 812.42 146.61 C 815.04 136.06 822.71 127.36 831.98 121.97 Z" />
<path fill="#000000" opacity="1.00" d=" M 1116.04 113.87 C 1124.19 111.23 1132.87 111.92 1141.29 112.25 C 1141.33 119.92 1141.31 127.60 1141.31 135.27 C 1132.32 133.59 1122.81 132.85 1114.02 135.86 C 1103.75 139.17 1094.99 147.37 1091.81 157.78 C 1089.61 164.66 1090.47 171.95 1090.31 179.04 C 1090.31 206.52 1090.31 234.00 1090.32 261.49 C 1082.77 261.50 1075.22 261.53 1067.68 261.47 C 1067.71 212.40 1067.67 163.32 1067.70 114.25 C 1074.98 114.26 1082.27 114.24 1089.56 114.26 C 1089.61 121.81 1089.44 129.36 1089.67 136.91 C 1091.24 136.36 1091.70 134.68 1092.44 133.38 C 1096.89 123.78 1106.10 117.00 1116.04 113.87 Z" />
<path fill="#000000" opacity="1.00" d=" M 1218.30 112.47 C 1232.82 111.47 1247.91 114.53 1260.02 122.86 C 1273.28 131.68 1282.26 145.88 1286.60 161.03 C 1290.86 176.24 1291.21 192.45 1288.51 207.97 C 1285.30 225.68 1276.04 242.76 1261.14 253.24 C 1245.67 264.40 1225.22 266.81 1206.90 262.74 C 1192.57 259.50 1179.69 250.69 1171.21 238.73 C 1162.86 227.21 1158.44 213.20 1157.22 199.11 C 1155.98 184.65 1157.04 169.79 1161.91 156.03 C 1166.74 142.38 1175.71 129.99 1187.99 122.12 C 1196.99 116.26 1207.61 113.12 1218.30 112.47 M 1216.20 133.13 C 1209.80 134.02 1203.54 136.43 1198.50 140.53 C 1189.65 147.52 1184.28 157.98 1181.71 168.80 C 1177.92 184.76 1178.57 201.98 1184.57 217.33 C 1189.09 228.87 1198.33 239.23 1210.59 242.57 C 1219.06 244.85 1228.20 244.85 1236.67 242.49 C 1246.79 239.69 1254.86 231.88 1259.82 222.84 C 1264.26 214.54 1266.47 205.20 1267.29 195.88 C 1268.24 183.67 1267.01 171.12 1262.35 159.72 C 1258.82 150.76 1252.64 142.67 1244.33 137.69 C 1235.89 132.82 1225.71 131.88 1216.20 133.13 Z" />
<path fill="#000000" opacity="1.00" d=" M 1379.35 112.48 C 1394.80 111.37 1410.94 114.97 1423.40 124.48 C 1439.11 136.10 1448.02 155.06 1450.41 174.14 C 1452.81 193.96 1450.80 215.07 1440.70 232.64 C 1432.91 246.70 1419.54 257.63 1404.02 261.99 C 1388.61 266.14 1371.62 265.50 1356.93 259.01 C 1341.55 252.22 1329.83 238.62 1323.81 223.09 C 1317.63 207.20 1316.74 189.66 1318.92 172.88 C 1321.35 154.96 1329.61 137.30 1343.92 125.87 C 1353.87 117.68 1366.56 113.24 1379.35 112.48 M 1374.46 133.63 C 1370.68 134.45 1366.99 135.76 1363.66 137.74 C 1352.13 144.57 1345.34 157.17 1342.54 169.95 C 1338.80 187.01 1339.89 205.57 1347.52 221.45 C 1352.38 231.13 1360.77 239.52 1371.39 242.49 C 1380.07 244.89 1389.45 244.87 1398.12 242.39 C 1407.81 239.57 1415.62 232.19 1420.53 223.54 C 1428.19 209.44 1429.92 192.72 1427.91 176.98 C 1426.04 162.86 1420.27 148.35 1408.45 139.68 C 1398.80 132.56 1385.93 131.43 1374.46 133.63 Z" />
<path fill="#000000" opacity="1.00" d=" M 1526.43 119.40 C 1535.82 112.56 1548.03 111.74 1559.25 112.58 C 1573.53 113.70 1587.29 120.37 1596.83 131.09 C 1609.42 144.90 1614.97 163.79 1615.73 182.16 C 1616.71 202.60 1613.15 224.24 1600.72 241.01 C 1591.51 253.86 1576.78 262.60 1561.00 264.15 C 1549.06 265.32 1535.97 264.44 1526.03 257.01 C 1519.95 253.06 1515.80 247.01 1511.86 241.08 C 1510.97 240.01 1510.21 237.88 1508.56 239.15 C 1508.46 264.98 1508.45 290.81 1508.57 316.64 C 1501.01 316.88 1493.44 316.69 1485.89 316.75 C 1485.88 249.25 1485.84 181.75 1485.91 114.25 C 1493.16 114.26 1500.42 114.25 1507.69 114.25 C 1507.68 122.06 1507.68 129.87 1507.69 137.69 C 1508.42 137.63 1509.88 137.51 1510.61 137.46 C 1514.96 130.73 1519.51 123.77 1526.43 119.40 M 1542.19 133.29 C 1533.08 134.73 1524.80 139.97 1519.29 147.32 C 1510.87 158.64 1508.22 173.15 1508.11 186.98 C 1508.01 198.93 1509.75 211.14 1515.02 221.97 C 1519.51 231.00 1527.07 238.97 1536.83 242.18 C 1545.06 244.84 1554.11 244.92 1562.44 242.63 C 1571.23 240.25 1578.47 233.92 1583.38 226.40 C 1592.33 212.07 1594.36 194.41 1592.71 177.88 C 1591.12 163.66 1585.89 148.68 1573.98 139.88 C 1565.06 132.99 1553.06 131.56 1542.19 133.29 Z" />
<path fill="#000000" opacity="1.00" d=" M 643.69 114.26 C 658.06 114.24 672.44 114.25 686.82 114.25 C 697.09 149.52 707.23 184.83 717.59 220.08 C 718.40 219.54 719.25 218.99 719.40 217.93 C 729.42 183.38 739.41 148.82 749.40 114.26 C 763.82 114.26 778.23 114.21 792.65 114.29 C 775.48 163.35 758.33 212.42 741.19 261.49 C 725.85 261.53 710.52 261.47 695.18 261.52 C 677.98 212.44 660.84 163.35 643.69 114.26 Z" />
</g>
</svg>
