<svg xmlns="http://www.w3.org/2000/svg" width="55" height="23" fill="none" viewBox="0 0 55 23">
  <path fill="url(#a)" d="M4.688 4.28v5.6h7.52v3.552h-7.52v5.92h8.48V23H.208V.632h12.96V4.28h-8.48ZM28.759 23l-4.928-8.704H21.72V23h-4.48V.664h8.384c1.728 0 3.2.31 4.416.928 1.216.597 2.123 1.419 2.72 2.464.619 1.024.928 2.176.928 3.456a6.721 6.721 0 0 1-1.28 4c-.853 1.173-2.122 1.984-3.808 2.432L33.943 23H28.76Zm-7.04-12.064h3.744c1.216 0 2.123-.288 2.72-.864.598-.597.896-1.419.896-2.464 0-1.024-.298-1.813-.896-2.368-.597-.576-1.504-.864-2.72-.864H21.72v6.56Zm32.308-3.36a6.853 6.853 0 0 1-.864 3.36c-.554 1.045-1.44 1.888-2.656 2.528-1.194.64-2.71.96-4.544.96H42.22V23h-4.48V.664h8.224c1.728 0 3.2.299 4.416.896 1.216.597 2.123 1.419 2.72 2.464.619 1.045.928 2.23.928 3.552Zm-8.256 3.232c1.238 0 2.155-.277 2.752-.832.598-.576.896-1.376.896-2.4 0-2.176-1.216-3.264-3.648-3.264H42.22v6.496h3.552Z"/>
  <defs>
    <linearGradient id="a" x1="26.5" x2="26.5" y1="-12" y2="36" gradientUnits="userSpaceOnUse">
      <stop stop-color="#2F2F2F"/>
      <stop offset="1" stop-color="#2F2F2F" stop-opacity=".4"/>
    </linearGradient>
  </defs>
</svg>
