<svg xmlns="http://www.w3.org/2000/svg" width="156" height="48" fill="none" viewBox="0 0 156 48">
  <path fill="#2F2F2F" d="M6.3 8.789a1.12 1.12 0 0 1 .99-.566h21.418c.402-.015.792.213.992.558 2.052 3.548 4.104 7.097 6.154 10.646.175.295.17.654.102.98a5.336 5.336 0 0 1-1.283 2.84 5.401 5.401 0 0 1-2.884 1.703c-.002 4.423 0 8.846-.001 13.27-.005.277.03.567-.074.833-.155.43-.597.738-1.056.723H5.343c-.593.031-1.137-.494-1.133-1.086-.003-4.582.006-9.163-.004-13.745a5.365 5.365 0 0 1-3.064-1.907 5.267 5.267 0 0 1-1.14-2.945 1.162 1.162 0 0 1 .156-.666L6.3 8.789Zm1.031 2.736c-1.672 2.908-3.367 5.805-5.026 8.719.146 1.123 1.026 2.091 2.098 2.424a3.079 3.079 0 0 0 2.662-.392 3.094 3.094 0 0 0 1.344-2.337 1.128 1.128 0 0 1 1.001-1.05c.592-.078 1.209.373 1.275.974.038.515.181 1.026.456 1.466a3.106 3.106 0 0 0 2.238 1.458 3.078 3.078 0 0 0 2.21-.571 3.129 3.129 0 0 0 1.269-2.285c.02-.365.233-.712.551-.894.502-.311 1.213-.134 1.537.352.246.327.17.76.29 1.132.299 1.159 1.326 2.082 2.51 2.255a3.078 3.078 0 0 0 2.623-.847c.543-.522.871-1.25.927-2 .02-.347.213-.678.507-.863.488-.335 1.207-.191 1.552.281.3.36.194.858.35 1.273.378 1.329 1.736 2.283 3.114 2.188 1.404-.05 2.673-1.182 2.878-2.572-1.4-2.488-2.857-4.947-4.278-7.424-.464-.779-.89-1.582-1.377-2.347-2.174.018-4.349.004-6.524.008-4.518-.005-9.037.01-13.555-.008-.238.337-.418.71-.632 1.06ZM21.83 25.057a5.36 5.36 0 0 1-3.832-2.054c-1.105 1.43-2.963 2.243-4.766 2.04-1.438-.137-2.79-.903-3.676-2.04a5.427 5.427 0 0 1-3.085 1.945c.002 4.195-.014 8.39.009 12.584 3.95-.015 7.901-.003 11.853-.006.002-2.74-.001-5.48.001-8.218-.01-.576.496-1.093 1.07-1.103 2.138-.003 4.276.001 6.414-.002.6-.021 1.144.515 1.133 1.117.002 2.734-.003 5.47.001 8.206.856.002 1.713-.007 2.57.004.02-4.193.004-8.386.007-12.58a5.421 5.421 0 0 1-3.092-1.942c-1.074 1.387-2.855 2.192-4.607 2.05Zm-1.237 5.4c.002 2.356-.005 4.713.003 7.07 1.363 0 2.724-.009 4.086.004.026-2.358.005-4.716.01-7.075-1.366.002-2.733 0-4.1 0Z"/>
  <path fill="#2F2F2F" d="M11.313 11.851a1.134 1.134 0 0 1 1.359.44c.182.285.232.652.12.972-.419 1.188-.843 2.376-1.261 3.564-.12.352-.418.644-.783.734-.47.14-1.02-.086-1.261-.512-.188-.305-.196-.696-.07-1.025.418-1.17.828-2.343 1.247-3.513.108-.3.35-.546.649-.66Zm6.249.013c.499-.226 1.136-.015 1.408.457.14.22.172.487.165.744-.004 1.196.003 2.39-.003 3.587.01.573-.48 1.091-1.052 1.12-.597.056-1.18-.443-1.2-1.046-.008-1.272-.001-2.544-.004-3.816a1.123 1.123 0 0 1 .686-1.046Zm6.393-.042c.419-.132.905.012 1.187.347.175.199.24.461.328.703.354.996.704 1.99 1.06 2.985.174.389.213.871-.038 1.236-.322.517-1.085.67-1.58.311-.3-.19-.437-.531-.537-.856-.386-1.097-.778-2.192-1.164-3.289-.203-.58.149-1.273.744-1.437ZM9.737 28.235c.172-.046.353-.03.53-.032 1.512.002 3.023 0 4.534.002.592-.009 1.115.52 1.107 1.11.004 1.536.004 3.071 0 4.607.008.591-.518 1.122-1.111 1.11-1.614 0-3.228.002-4.842-.001-.575-.01-1.082-.529-1.072-1.106 0-1.54-.002-3.081 0-4.622-.002-.497.373-.955.854-1.068Zm1.404 2.223v2.315h2.511v-2.316h-2.51ZM57.728 35 52.8 26.296h-2.112V35h-4.48V12.664h8.384c1.728 0 3.2.31 4.416.928 1.216.597 2.123 1.419 2.72 2.464.619 1.024.928 2.176.928 3.456a6.721 6.721 0 0 1-1.28 4c-.853 1.173-2.123 1.984-3.808 2.432L62.912 35h-5.184Zm-7.04-12.064h3.744c1.216 0 2.123-.288 2.72-.864.597-.597.896-1.419.896-2.464 0-1.024-.299-1.813-.896-2.368-.597-.576-1.504-.864-2.72-.864h-3.744v6.56Zm32.5 2.816c0 .64-.043 1.216-.128 1.728H70.1c.107 1.28.555 2.283 1.344 3.008.79.725 1.76 1.088 2.912 1.088 1.664 0 2.848-.715 3.552-2.144h4.832c-.512 1.707-1.493 3.115-2.944 4.224-1.45 1.088-3.232 1.632-5.344 1.632-1.707 0-3.243-.373-4.608-1.12-1.344-.768-2.4-1.845-3.168-3.232-.747-1.387-1.12-2.987-1.12-4.8 0-1.835.373-3.445 1.12-4.832.747-1.387 1.792-2.453 3.136-3.2 1.344-.747 2.89-1.12 4.64-1.12 1.685 0 3.19.363 4.512 1.088a7.505 7.505 0 0 1 3.104 3.104c.747 1.323 1.12 2.848 1.12 4.576Zm-4.64-1.28c-.021-1.152-.437-2.07-1.248-2.752-.81-.704-1.803-1.056-2.976-1.056-1.11 0-2.048.341-2.816 1.024-.747.661-1.205 1.59-1.376 2.784h8.416Zm24.39 1.28c0 .64-.043 1.216-.128 1.728H89.85c.107 1.28.555 2.283 1.344 3.008.79.725 1.76 1.088 2.912 1.088 1.664 0 2.848-.715 3.552-2.144h4.832c-.512 1.707-1.493 3.115-2.944 4.224-1.45 1.088-3.232 1.632-5.344 1.632-1.707 0-3.243-.373-4.608-1.12-1.344-.768-2.4-1.845-3.168-3.232-.747-1.387-1.12-2.987-1.12-4.8 0-1.835.373-3.445 1.12-4.832.747-1.387 1.792-2.453 3.136-3.2 1.344-.747 2.89-1.12 4.64-1.12 1.685 0 3.19.363 4.512 1.088a7.503 7.503 0 0 1 3.104 3.104c.747 1.323 1.12 2.848 1.12 4.576Zm-4.64-1.28c-.021-1.152-.437-2.07-1.248-2.752-.81-.704-1.803-1.056-2.976-1.056-1.11 0-2.048.341-2.816 1.024-.747.661-1.205 1.59-1.376 2.784h8.416Zm13.126-3.52v8.576c0 .597.139 1.035.416 1.312.299.256.789.384 1.472.384h2.08V35h-2.816c-3.776 0-5.664-1.835-5.664-5.504v-8.544H104.8v-3.68h2.112v-4.384h4.512v4.384h3.968v3.68h-3.968Zm6.038 5.12c0-1.792.352-3.381 1.056-4.768.726-1.387 1.696-2.453 2.912-3.2 1.238-.747 2.614-1.12 4.128-1.12 1.323 0 2.475.267 3.456.8 1.003.533 1.803 1.205 2.4 2.016v-2.528h4.512V35h-4.512v-2.592c-.576.832-1.376 1.525-2.4 2.08-1.002.533-2.165.8-3.488.8-1.493 0-2.858-.384-4.096-1.152-1.216-.768-2.186-1.845-2.912-3.232-.704-1.408-1.056-3.019-1.056-4.832Zm13.952.064c0-1.088-.213-2.016-.64-2.784-.426-.79-1.002-1.387-1.728-1.792a4.529 4.529 0 0 0-2.336-.64c-.832 0-1.6.203-2.304.608-.704.405-1.28 1.003-1.728 1.792-.426.768-.64 1.685-.64 2.752 0 1.067.214 2.005.64 2.816.448.79 1.024 1.397 1.728 1.824.726.427 1.494.64 2.304.64.832 0 1.611-.203 2.336-.608a4.646 4.646 0 0 0 1.728-1.792c.427-.79.64-1.728.64-2.816Zm11.16-10.976c-.79 0-1.451-.245-1.984-.736-.512-.512-.768-1.141-.768-1.888 0-.747.256-1.365.768-1.856.533-.512 1.194-.768 1.984-.768.789 0 1.44.256 1.952.768.533.49.8 1.11.8 1.856 0 .747-.267 1.376-.8 1.888-.512.49-1.163.736-1.952.736Zm2.208 2.112V35h-4.48V17.272h4.48Zm8.906-5.952V35h-4.48V11.32h4.48Z"/>
</svg>
